<svg t="1571838297075" class="icon" viewBox="0 0 1024 1024" version="1.1" xmlns="http://www.w3.org/2000/svg" p-id="1964" ><path d="M800.5824 704.38784c-28.67968 0-54.44992 12.63232-72.0896 32.60544L336.95616 538.10816c2.01856-8.17664 3.0976-16.71808 3.0976-25.50784 0-7.8272-0.8576-15.45728-2.46912-22.80704l291.82464-138.7904c25.88032 40.10112 70.95296 66.70464 122.1248 66.70464 80.08704 0 145.24288-65.15584 145.24288-145.24288 0-80.08704-65.15456-145.24288-145.24288-145.24288-80.08576 0-145.24288 65.15456-145.24288 145.24288 0 11.81952 1.43104 23.31008 4.10624 34.31936L316.8768 446.38336c-19.5136-24.47872-49.57312-40.19712-83.2384-40.19712-58.67776 0-106.41536 47.7376-106.41536 106.41536 0 58.67776 47.7376 106.41536 106.41536 106.41536 32.67072 0 61.9456-14.80448 81.48224-38.05312l391.54304 198.88512c-1.47456 6.68288-2.27584 13.61408-2.27584 20.73344 0 53.04064 43.15264 96.19328 96.19456 96.19328 53.04064 0 96.19328-43.15264 96.19328-96.19328C896.77568 747.54048 853.62432 704.38784 800.5824 704.38784zM751.53408 175.32032c53.56672 0 97.1456 43.57888 97.1456 97.1456s-43.57888 97.1456-97.1456 97.1456c-53.56544 0-97.1456-43.57888-97.1456-97.1456S697.96864 175.32032 751.53408 175.32032zM233.6384 570.9184c-32.15744 0-58.31808-26.16064-58.31808-58.31808 0-32.15744 26.16064-58.31808 58.31808-58.31808 32.15616 0 58.31808 26.16064 58.31808 58.31808C291.95648 544.75776 265.79456 570.9184 233.6384 570.9184zM800.5824 848.6784c-26.52032 0-48.09728-21.57568-48.09728-48.096s21.57696-48.09728 48.09728-48.09728 48.096 21.57696 48.096 48.09728S827.10272 848.6784 800.5824 848.6784z" p-id="1965" fill="#ffffff"></path></svg>