<?xml version="1.0" standalone="no"?><!DOCTYPE svg PUBLIC "-//W3C//DTD SVG 1.1//EN" "http://www.w3.org/Graphics/SVG/1.1/DTD/svg11.dtd"><svg class="icon" width="200px" height="200.00px" viewBox="0 0 1024 1024" version="1.1" xmlns="http://www.w3.org/2000/svg"><path d="M0 512c0 52.7 43.6 95.3 97.3 95.3 53.7 0 97.3-42.7 97.3-95.3 0-52.7-43.6-95.3-97.3-95.3C43.6 416.6 0 459.3 0 512zM414.7 512c0 52.7 43.6 95.3 97.3 95.3 53.7 0 97.3-42.7 97.3-95.3 0-52.7-43.6-95.3-97.3-95.3-53.7-0.1-97.3 42.6-97.3 95.3zM829.4 512c0 52.7 43.6 95.3 97.3 95.3 53.7 0 97.3-42.7 97.3-95.3 0-52.7-43.6-95.3-97.3-95.3-53.7-0.1-97.3 42.6-97.3 95.3z" fill="#191919" /></svg>