<?xml version="1.0" standalone="no"?><!DOCTYPE svg PUBLIC "-//W3C//DTD SVG 1.1//EN" "http://www.w3.org/Graphics/SVG/1.1/DTD/svg11.dtd">
<svg class="icon" width="200px" height="200.00px" viewBox="0 0 1024 1024" version="1.1" 
    xmlns="http://www.w3.org/2000/svg">
    <path d="M823.778374 634.059963c0 0-84.184331-11.95631-95.757924-13.626345-0.815575-0.12689-1.350764-0.203638-1.37737-0.203638-6.195096-1.388627-11.30651-5.290493-14.352893-10.516518-0.102331-0.2415-2.651386-5.238304-6.374174-12.606109-11.764951-23.352871-35.806507-71.078849-35.806507-71.078849-2.969635-6.526647-9.624195-11.089569-17.349133-11.089569-7.800663 0-14.468526 4.562922-17.386996 11.089569 0 0-3.352351 6.590092-8.05649 15.933901-12.019755 23.76117-33.282011 65.813938-33.359782 65.980737-2.868327 6.181793-8.552793 10.822486-15.513322 12.262278-0.268106 0.051165-97.337909 13.779841-97.337909 13.779841-8.350179 1.976004-14.544251 9.268084-14.544251 18.037818 0 5.009084 2.026146 9.547447 5.353938 12.887518 0 0 68.771293 65.571415 69.013817 65.801658 3.836375 3.900843 6.219655 9.16473 6.219655 14.989389 0 1.27504-0.191358 2.536776-0.394996 3.799536-0.051165 0.178055-7.470135 42.487673-12.212136 69.318762-2.167363 12.416797-3.773953 21.517059-3.773953 21.517059s-0.394996 2.550079-0.394996 3.799536c0 10.273994 8.502651 18.585287 19.005866 18.585287 2.549056 0 4.945639-0.509606 7.164167-1.402953 0 0 64.10604-33.039487 82.71691-42.49893 2.995217-1.528819 4.907777-2.49789 5.111414-2.574638 2.549056-1.006933 5.328355-1.593288 8.247848-1.593288 2.868327 0 5.545296 0.574075 8.043187 1.51654 0.229221 0.075725 2.192945 1.070378 5.251607 2.650363 18.764366 9.535167 82.182744 42.385343 82.679048 42.563398 2.231831 0.905626 4.690836 1.440815 7.240915 1.440815 10.504238 0 19.043728-8.311293 19.043728-18.585287 0-0.331551-1.860371-11.218506-4.333702-25.418926-4.92108-28.235065-12.212136-69.944002-12.288884-70.631664-0.075725-0.777713-0.229221-1.543146-0.229221-2.332115 0-5.724375 2.319835-10.912537 6.054903-14.786775 0.140193-0.12689 7.749498-7.394411 17.807574-16.966417 20.421098-19.452028 51.102888-48.656163 51.102888-48.656163l0.2415-0.230244c3.352351-3.365654 5.481851-7.928576 5.481851-13.015432C838.717621 643.302465 832.34447 635.883495 823.778374 634.059963L823.778374 634.059963zM823.778374 634.059963" fill="#AC0000" />
    <path d="M449.3271 686.528965c-9.292644-9.254781-14.391778-21.530362-14.391778-34.520211 0-22.917966 15.933901-42.664705 38.751582-48.056506 0.943488-0.229221 1.912559-0.407276 2.880607-0.548492 24.805966-3.505847 57.757448-8.18338 78.216409-11.076266l34.087353-67.165726c3.913123-2.051729 7.456832-4.677533 11.217483-6.959505 30.057573-18.36937 55.246255-43.773969 72.837912-74.41892 17.540492-30.54262 27.877931-65.724911 27.877931-103.418394 0-114.980731-93.373621-208.520127-208.111828-208.520127-114.76379 0-208.124108 93.539396-208.124108 208.520127 0 37.693484 10.350742 72.875774 27.89021 103.418394 19.809161 34.519188 48.924269 62.996776 84.234473 81.480756-1.988284 0.407276-4.041036 0.509606-5.991458 1.020236-13.33368 3.365654-25.851784 8.655124-37.84698 15.169491-11.892865 6.462179-22.651906 14.417361-32.951483 22.970154-15.780405 10.771321-30.898731 22.664186-44.691875 36.495192-52.722782 52.78725-83.775009 109.881596-89.154529 183.586249-0.127913 1.834788-8.578376 26.02984 26.106588 26.106588l287.169395 0c7.724938-43.8763 14.07353-54.023404 15.436574-61.672618-14.696724-14.008039-64.920592-61.899792-64.920592-61.899792-0.178055-0.178055-0.357134-0.357134-0.535189-0.509606L449.3271 686.529989zM449.3271 686.528965" fill="#AC0000" />
</svg>