<?xml version="1.0" standalone="no"?><!DOCTYPE svg PUBLIC "-//W3C//DTD SVG 1.1//EN" "http://www.w3.org/Graphics/SVG/1.1/DTD/svg11.dtd"><svg class="icon" width="200px" height="200.00px" viewBox="0 0 1024 1024" version="1.1" xmlns="http://www.w3.org/2000/svg"><path fill="#ffffff" d="M160 144h704c26.512 0 48-21.488 48-48s-21.488-48-48-48H160c-26.512 0-48 21.488-48 48s21.488 48 48 48z m774 48H90L0 432c0 70.688 57.312 128 128 128s128-57.312 128-128c0 70.688 57.312 128 128 128s128-57.312 128-128c0 70.688 57.312 128 128 128s128-57.312 128-128c0 70.688 57.312 128 128 128s128-57.312 128-128l-90-240z m-54 415.232v-0.032c-4.592-0.416-9.12-1.104-13.6-1.872-0.976-0.16-1.968-0.24-2.928-0.416-2.08-0.368-4.096-0.976-6.144-1.44-8.656-1.984-17.168-4.448-25.328-7.632V832H192V595.824c-8.16 3.2-16.672 5.664-25.376 7.648-2.048 0.464-4.048 1.04-6.112 1.44-0.96 0.192-1.952 0.272-2.928 0.432-4.48 0.736-8.992 1.44-13.584 1.856v0.032c-5.264 0.48-10.592 0.768-16 0.768-10.944 0-21.616-1.12-32-3.024V928c0 26.512 21.488 48 48 48h736c26.512 0 48-21.488 48-48V604.976C917.632 606.88 906.944 608 896 608c-5.392 0-10.736-0.288-16-0.768z"  /></svg>